<svg width="129" height="32" viewBox="0 0 129 32" fill="none" xmlns="http://www.w3.org/2000/svg">
<path d="M9.875 1H14.875L14.875 31H11.125L11.125 4.125L2.375 11.625L0.5 9.125L9.875 1ZM19.875 27.25C19.875 26.4688 19.8945 25.694 19.9336 24.9258C19.9727 24.1445 20.0573 23.4023 20.1875 22.6992C20.3307 21.9831 20.5326 21.3125 20.793 20.6875C21.0664 20.0625 21.431 19.5156 21.8867 19.0469C22.3555 18.5651 22.9349 18.168 23.625 17.8555C24.3151 17.543 25.1484 17.3411 26.125 17.25L46.125 15.375C46.75 15.3229 47.2969 15.2318 47.7656 15.1016C48.2344 14.9714 48.6185 14.724 48.918 14.3594C49.2305 13.9818 49.4648 13.4349 49.6211 12.7188C49.7773 12.0026 49.8555 11.0195 49.8555 9.76953C49.8555 8.72786 49.7773 7.84896 49.6211 7.13281C49.4648 6.41667 49.2044 5.82422 48.8398 5.35547C48.4753 4.88672 47.9805 4.52865 47.3555 4.28125C46.7435 4.03385 45.9753 3.85156 45.0508 3.73437C44.1263 3.61719 43.0326 3.55208 41.7695 3.53906C40.5065 3.51302 39.0417 3.5 37.375 3.5C35.0833 3.5 33.1497 3.54557 31.5742 3.63672C30.0117 3.71484 28.7161 3.86458 27.6875 4.08594C26.6719 4.30729 25.8906 4.60677 25.3438 4.98438C24.7969 5.36198 24.3932 5.85677 24.1328 6.46875C23.8854 7.06771 23.7357 7.79036 23.6836 8.63672C23.6445 9.48307 23.625 10.4792 23.625 11.625H19.875C19.875 9.75 20.0443 8.17448 20.3828 6.89844C20.7344 5.60938 21.2422 4.54818 21.9062 3.71484C22.5833 2.88151 23.4167 2.23698 24.4062 1.78125C25.3958 1.32552 26.5352 0.99349 27.8242 0.785156C29.1263 0.576823 30.5716 0.459635 32.1602 0.433594C33.7617 0.394531 35.5 0.375 37.375 0.375C39.25 0.375 40.9492 0.407552 42.4727 0.472656C44.0091 0.52474 45.3763 0.654948 46.5742 0.863281C47.7852 1.07161 48.8333 1.3776 49.7188 1.78125C50.6042 2.1849 51.3333 2.73828 51.9062 3.44141C52.4922 4.13151 52.9219 4.99089 53.1953 6.01953C53.4818 7.04818 53.625 8.29167 53.625 9.75C53.625 11 53.5339 12.1393 53.3516 13.168C53.1693 14.1836 52.8438 15.069 52.375 15.8242C51.9062 16.5794 51.2682 17.1849 50.4609 17.6406C49.6536 18.0964 48.625 18.3828 47.375 18.5L27.375 20.375C26.4245 20.4661 25.6953 20.6419 25.1875 20.9023C24.6797 21.1628 24.3086 21.5794 24.0742 22.1523C23.8398 22.7122 23.7031 23.4544 23.6641 24.3789C23.638 25.3034 23.625 26.4688 23.625 27.875H53V31H19.875V27.25ZM79.8945 0.375C82.1862 0.375 84.1133 0.518229 85.6758 0.804687C87.2513 1.07812 88.5469 1.5013 89.5625 2.07422C90.5781 2.63411 91.3594 3.34375 91.9062 4.20312C92.4531 5.0625 92.8503 6.07161 93.0977 7.23047C93.3581 8.38932 93.5078 9.69792 93.5469 11.1562C93.599 12.6146 93.625 14.2292 93.625 16C93.625 17.7708 93.599 19.3854 93.5469 20.8437C93.5078 22.3021 93.3581 23.6107 93.0977 24.7695C92.8503 25.9284 92.4531 26.9375 91.9062 27.7969C91.3594 28.6562 90.5781 29.3724 89.5625 29.9453C88.5469 30.5052 87.2513 30.9219 85.6758 31.1953C84.1133 31.4818 82.1862 31.625 79.8945 31.625H72.375C70.0833 31.625 68.1497 31.4818 66.5742 31.1953C65.0117 30.9219 63.7227 30.5052 62.707 29.9453C61.6914 29.3724 60.9036 28.6562 60.3438 27.7969C59.7969 26.9375 59.3932 25.9284 59.1328 24.7695C58.8854 23.6107 58.7422 22.3021 58.7031 20.8438C58.6641 19.3854 58.6445 17.7708 58.6445 16C58.6445 14.2292 58.6641 12.6146 58.7031 11.1562C58.7422 9.69792 58.8854 8.38932 59.1328 7.23047C59.3932 6.07161 59.7969 5.0625 60.3438 4.20312C60.9036 3.34375 61.6914 2.63411 62.707 2.07422C63.7227 1.5013 65.0117 1.07812 66.5742 0.804687C68.1497 0.518229 70.0833 0.375 72.375 0.375H79.8945ZM79.8945 28.5C81.5612 28.5 82.9609 28.4544 84.0938 28.3633C85.2266 28.2591 86.1641 28.0573 86.9062 27.7578C87.6484 27.4583 88.2214 27.0286 88.625 26.4687C89.0286 25.9089 89.3216 25.1667 89.5039 24.2422C89.6862 23.3177 89.7904 22.1849 89.8164 20.8437C89.8555 19.4896 89.875 17.875 89.875 16C89.875 14.125 89.8555 12.5169 89.8164 11.1758C89.7904 9.82161 89.6862 8.68229 89.5039 7.75781C89.3216 6.83333 89.0286 6.09115 88.625 5.53125C88.2214 4.97135 87.6484 4.54167 86.9062 4.24219C86.1771 3.94271 85.2396 3.7474 84.0938 3.65625C82.9609 3.55208 81.5612 3.5 79.8945 3.5H72.375C70.7083 3.5 69.3021 3.55208 68.1562 3.65625C67.0234 3.7474 66.0859 3.94271 65.3438 4.24219C64.6016 4.54167 64.0286 4.97135 63.625 5.53125C63.2214 6.09115 62.9284 6.83333 62.7461 7.75781C62.5638 8.68229 62.4596 9.82161 62.4336 11.1758C62.4076 12.5169 62.3945 14.125 62.3945 16C62.3945 17.875 62.4076 19.4896 62.4336 20.8437C62.4727 22.1849 62.5833 23.3177 62.7656 24.2422C62.9479 25.1667 63.2344 25.9089 63.625 26.4687C64.0286 27.0286 64.6016 27.4583 65.3438 27.7578C66.0859 28.0573 67.0234 28.2591 68.1562 28.3633C69.3021 28.4544 70.7083 28.5 72.375 28.5H79.8945ZM107.375 12.25H116.125V3.5H119.875V12.25H128.625V15.375H119.875V24.75H116.125V15.375H107.375V12.25Z" fill="#184AFB"/>
</svg>
