<svg width="108" height="32" viewBox="0 0 108 32" fill="none" xmlns="http://www.w3.org/2000/svg">
<path d="M0.5 27.25C0.5 26.4688 0.519531 25.694 0.558594 24.9258C0.597656 24.1445 0.682292 23.4023 0.8125 22.6992C0.955729 21.9831 1.15755 21.3125 1.41797 20.6875C1.69141 20.0625 2.05599 19.5156 2.51172 19.0469C2.98047 18.5651 3.5599 18.168 4.25 17.8555C4.9401 17.543 5.77344 17.3411 6.75 17.25L26.75 15.375C27.375 15.3229 27.9219 15.2318 28.3906 15.1016C28.8594 14.9714 29.2435 14.724 29.543 14.3594C29.8555 13.9818 30.0898 13.4349 30.2461 12.7188C30.4023 12.0026 30.4805 11.0195 30.4805 9.76953C30.4805 8.72786 30.4023 7.84896 30.2461 7.13281C30.0898 6.41667 29.8294 5.82422 29.4648 5.35547C29.1003 4.88672 28.6055 4.52865 27.9805 4.28125C27.3685 4.03385 26.6003 3.85156 25.6758 3.73438C24.7513 3.61719 23.6576 3.55208 22.3945 3.53906C21.1315 3.51302 19.6667 3.5 18 3.5C15.7083 3.5 13.7747 3.54557 12.1992 3.63672C10.6367 3.71484 9.34115 3.86458 8.3125 4.08594C7.29688 4.30729 6.51563 4.60677 5.96875 4.98438C5.42188 5.36198 5.01823 5.85677 4.75781 6.46875C4.51042 7.06771 4.36068 7.79036 4.30859 8.63672C4.26953 9.48307 4.25 10.4792 4.25 11.625H0.5C0.5 9.75 0.669271 8.17448 1.00781 6.89844C1.35938 5.60938 1.86719 4.54818 2.53125 3.71484C3.20833 2.88151 4.04167 2.23698 5.03125 1.78125C6.02083 1.32552 7.16016 0.99349 8.44922 0.785156C9.7513 0.576823 11.1966 0.459635 12.7852 0.433594C14.3867 0.394531 16.125 0.375 18 0.375C19.875 0.375 21.5742 0.407552 23.0977 0.472656C24.6341 0.52474 26.0013 0.654948 27.1992 0.863281C28.4102 1.07161 29.4583 1.3776 30.3438 1.78125C31.2292 2.1849 31.9583 2.73828 32.5312 3.44141C33.1172 4.13151 33.5469 4.99089 33.8203 6.01953C34.1068 7.04818 34.25 8.29167 34.25 9.75C34.25 11 34.1589 12.1393 33.9766 13.168C33.7943 14.1836 33.4688 15.069 33 15.8242C32.5312 16.5794 31.8932 17.1849 31.0859 17.6406C30.2786 18.0964 29.25 18.3828 28 18.5L8 20.375C7.04948 20.4661 6.32031 20.6419 5.8125 20.9023C5.30469 21.1628 4.93359 21.5794 4.69922 22.1523C4.46484 22.7122 4.32813 23.4544 4.28906 24.3789C4.26302 25.3034 4.25 26.4688 4.25 27.875H33.625V31H0.5L0.5 27.25ZM61.75 10.375C63.4167 10.375 64.849 10.4661 66.0469 10.6484C67.2578 10.8177 68.2799 11.0911 69.1133 11.4687C69.9466 11.8333 70.6172 12.3021 71.125 12.875C71.6328 13.4479 72.0234 14.1315 72.2969 14.9258C72.5833 15.707 72.7721 16.6055 72.8633 17.6211C72.9544 18.6237 73 19.75 73 21C73 22.6276 72.8568 24.0273 72.5703 25.1992C72.2969 26.3581 71.8672 27.3346 71.2812 28.1289C70.7083 28.9102 69.9792 29.5352 69.0938 30.0039C68.2083 30.4596 67.1602 30.8047 65.9492 31.0391C64.7513 31.2865 63.3841 31.4427 61.8477 31.5078C60.3242 31.5859 58.625 31.625 56.75 31.625C54.875 31.625 53.1367 31.612 51.5352 31.5859C49.9466 31.5599 48.5013 31.4557 47.1992 31.2734C45.9102 31.0911 44.7708 30.8047 43.7812 30.4141C42.7917 30.0104 41.9583 29.4375 41.2812 28.6953C40.6172 27.9531 40.1094 27.0091 39.7578 25.8633C39.4193 24.7174 39.25 23.3047 39.25 21.625H43C43 22.6146 43.0195 23.474 43.0586 24.2031C43.1107 24.9193 43.2604 25.5312 43.5078 26.0391C43.7682 26.5469 44.1719 26.9635 44.7188 27.2891C45.2656 27.6016 46.0469 27.849 47.0625 28.0312C48.0911 28.2135 49.3867 28.3372 50.9492 28.4023C52.5247 28.4674 54.4583 28.5 56.75 28.5C58.4167 28.5 59.8815 28.487 61.1445 28.4609C62.4076 28.4349 63.5013 28.3503 64.4258 28.207C65.3633 28.0638 66.138 27.8424 66.75 27.543C67.362 27.2305 67.8503 26.7943 68.2148 26.2344C68.5924 25.6745 68.8594 24.9714 69.0156 24.125C69.1719 23.2656 69.25 22.2174 69.25 20.9805C69.25 19.3138 69.1523 17.9857 68.957 16.9961C68.7617 16.0065 68.3906 15.2578 67.8438 14.75C67.2969 14.2292 66.5352 13.8906 65.5586 13.7344C64.582 13.5781 63.3125 13.5 61.75 13.5H51.75C50.0312 13.5 48.638 13.5781 47.5703 13.7344C46.5026 13.8776 45.6562 14.0859 45.0312 14.3594C44.4062 14.6328 43.9505 14.9648 43.6641 15.3555C43.3776 15.7331 43.1562 16.1562 43 16.625H39.25V1H71.75V4.125H43V13.5C43.013 13.474 43.0651 13.3828 43.1562 13.2266C43.2604 13.0573 43.4297 12.8555 43.6641 12.6211C43.9115 12.3867 44.237 12.1393 44.6406 11.8789C45.0573 11.6185 45.5846 11.3776 46.2227 11.1562C46.8737 10.9349 47.6484 10.7526 48.5469 10.6094C49.4583 10.4531 50.526 10.375 51.75 10.375H61.75ZM86.75 12.25H95.5V3.5H99.25V12.25H108V15.375H99.25V24.75H95.5V15.375H86.75V12.25Z" fill="#184AFB"/>
</svg>
