<svg width="487" height="320" viewBox="0 0 487 320" fill="none" xmlns="http://www.w3.org/2000/svg">
<g opacity="0.1">
<path opacity="0.08" d="M134.327 184.754C134.327 184.754 141.411 223.378 177.34 244.309C213.264 265.239 257.923 260.246 294.224 257.163C330.524 254.08 355.017 229.243 354.489 197.497C353.961 165.752 325.133 160.857 304.901 127.741C284.669 94.6321 284.244 82.785 249.443 65.8711C214.642 48.9634 167.355 69.943 147.129 111.239C126.903 152.535 134.327 184.754 134.327 184.754Z" fill="#184AFB"/>
<path opacity="0.7" d="M134.327 184.754C134.327 184.754 141.411 223.378 177.34 244.309C213.264 265.239 257.923 260.246 294.224 257.163C330.524 254.08 355.017 229.243 354.489 197.497C353.961 165.752 325.133 160.857 304.901 127.741C284.669 94.6321 284.244 82.785 249.443 65.8711C214.642 48.9634 167.355 69.943 147.129 111.239C126.903 152.535 134.327 184.754 134.327 184.754Z" fill="#184AFB"/>
</g>
<mask id="mask0_1_4856" style="mask-type:luminance" maskUnits="userSpaceOnUse" x="128" y="60" width="232" height="200">
<path d="M360 60H128V259.217H360V60Z" fill="white"/>
</mask>
<g mask="url(#mask0_1_4856)">
<path d="M326.459 206.395L323.164 257.578C323.091 258.099 322.651 258.546 322.139 258.546C321.552 258.546 321.113 258.099 321.113 257.503C321.113 257.503 321.113 257.503 321.113 257.429L322.504 206.32H326.459V206.395Z" fill="#2E3038" stroke="#2E3038" stroke-linecap="round" stroke-linejoin="round"/>
<path d="M335.027 206.396L338.322 257.578C338.322 258.1 338.762 258.547 339.348 258.547C339.934 258.547 340.373 258.1 340.373 257.503L338.982 206.47L335.027 206.396Z" fill="#2E3038" stroke="#2E3038" stroke-linecap="round" stroke-linejoin="round"/>
<path d="M301.633 206.396L304.928 257.578C304.928 258.1 305.368 258.547 305.953 258.547C306.539 258.547 306.978 258.1 306.978 257.503L305.587 206.47L301.633 206.396Z" fill="#2E3038" stroke="#2E3038" stroke-linecap="round" stroke-linejoin="round"/>
<path d="M288.012 206.396L284.717 257.578C284.643 258.1 284.204 258.547 283.691 258.547C283.105 258.547 282.666 258.1 282.666 257.503L284.057 206.47L288.012 206.396Z" fill="#2E3038" stroke="#2E3038" stroke-linecap="round" stroke-linejoin="round"/>
<path d="M346.012 154.766C346.012 154.766 312.764 153.499 309.981 153.499C307.198 153.499 306.539 154.766 306.539 154.766L301.779 188.812C301.779 188.812 287.059 184.492 284.13 185.088C281.201 185.684 285.594 206.991 285.594 206.991H302.292L302.585 205.725H340.3L350.332 157.224C349.673 154.989 346.012 154.766 346.012 154.766Z" fill="white" stroke="#2E3038" stroke-linecap="round" stroke-linejoin="round"/>
<path d="M333.416 176.073C333.416 176.073 336.785 198.424 332.903 201.031C332.318 201.404 329.022 203.341 326.019 203.043C323.603 202.819 306.32 203.043 306.32 203.043C306.32 203.043 303.903 198.424 303.464 194.997C303.024 191.57 306.759 176.893 306.759 176.893L333.416 176.073Z" fill="white" stroke="#2E3038" stroke-linecap="round" stroke-linejoin="round"/>
<path d="M305.074 187.994C305.074 187.994 280.028 190.602 278.856 191.347C277.684 192.092 272.265 196.859 273.217 199.988C274.169 203.118 271.826 203.341 273.949 203.863C276.074 204.384 306.538 204.309 306.538 204.309" fill="#184AFB"/>
<path d="M305.074 187.994C305.074 187.994 280.028 190.602 278.856 191.347C277.684 192.092 272.265 196.859 273.217 199.988C274.169 203.118 271.826 203.341 273.949 203.863C276.074 204.384 306.538 204.309 306.538 204.309" stroke="#2E3038" stroke-linecap="round" stroke-linejoin="round"/>
<path d="M341.763 202.447H282.299V206.992H341.763V202.447Z" fill="white" stroke="#2E3038" stroke-linecap="round" stroke-linejoin="round"/>
<path d="M327.705 188.962H291.894C291.894 188.962 289.991 191.122 289.77 195.667C289.551 200.211 289.991 201.181 293.285 202.372C296.581 203.564 325.947 202.969 325.947 202.969" fill="#184AFB"/>
<path d="M327.705 188.962H291.894C291.894 188.962 289.991 191.122 289.77 195.667C289.551 200.211 289.991 201.181 293.285 202.372C296.581 203.564 325.947 202.969 325.947 202.969" stroke="#2E3038" stroke-linecap="round" stroke-linejoin="round"/>
<path d="M299.509 246.776L295.774 237.761L289.622 238.953L294.309 246.999L291.6 252.512L285.741 256.386C285.741 256.386 285.082 257.057 288.012 256.834C290.941 256.609 297.019 256.834 297.019 256.834L300.827 252.288C300.827 252.288 302.218 249.979 299.509 246.776Z" fill="white" stroke="#2E3038" stroke-linecap="round" stroke-linejoin="round"/>
<path d="M301.195 250.724L301.341 256.61H300.39L299.145 253.704L301.195 250.724Z" fill="#2E3038" stroke="#2E3038" stroke-linecap="round" stroke-linejoin="round"/>
<path d="M297.02 256.907L300.828 252.363C300.828 252.363 301.854 250.65 300.462 248.191C297.752 252.959 294.091 254.374 294.091 254.374L290.282 253.48L285.669 256.535C285.669 256.535 285.01 257.206 287.939 256.982C290.868 256.758 297.02 256.907 297.02 256.907Z" fill="#2E3038" stroke="#2E3038" stroke-linecap="round" stroke-linejoin="round"/>
<path d="M284.79 200.734L297.313 239.399L288.378 241.039L270.803 200.808C270.803 200.808 269.411 194.774 273.146 192.91C276.881 191.048 288.012 190.005 288.012 190.005" fill="#184AFB"/>
<path d="M284.79 200.734L297.313 239.399L288.378 241.039L270.803 200.808C270.803 200.808 269.411 194.774 273.146 192.91C276.881 191.048 288.012 190.005 288.012 190.005" stroke="#2E3038" stroke-linecap="round" stroke-linejoin="round"/>
<path d="M325.066 206.918C325.066 206.918 320.745 185.535 323.601 185.015C326.457 184.493 341.25 188.739 341.25 188.739L346.01 154.767C346.01 154.767 350.99 153.947 351.576 158.492C352.089 163.036 341.763 206.918 341.763 206.918H325.066Z" fill="#2E3038" stroke="#2E3038" stroke-linecap="round" stroke-linejoin="round"/>
<path d="M274.099 143.963L271.901 140.238C271.462 139.493 270.657 139.046 269.851 139.12L267.727 139.195L264.139 138.077C263.7 137.928 263.187 138.077 262.894 138.524L262.747 138.673L266.043 140.163L262.747 141.43L259.233 139.642C258.939 139.493 258.573 139.567 258.427 139.865C258.207 140.163 258.28 140.61 258.573 140.834L263.479 144.708C263.772 144.931 264.212 145.08 264.578 145.006L269.997 143.888L271.535 145.602L274.099 143.963Z" fill="white" stroke="#2E3038" stroke-linecap="round" stroke-linejoin="round"/>
<path d="M311.959 136.29L291.819 157.746L272.633 141.952L269.996 143.889L291.087 168.251L309.396 158.193L311.959 136.29Z" fill="white" stroke="#2E3038" stroke-linecap="round" stroke-linejoin="round"/>
<path d="M342.058 141.803L352.603 174.733L343.523 175.03L334.441 159.534C334.441 159.534 339.568 143.963 342.058 141.803Z" fill="white" stroke="#2E3038" stroke-linecap="round" stroke-linejoin="round"/>
<path d="M330.56 136.14L342.056 141.802L332.463 169.145L333.562 176.744L306.686 176.818L309.908 164.525L307.711 156.629C307.418 155.585 307.418 154.542 307.637 153.499L311.959 136.289L323.236 134.427L330.56 136.14Z" fill="white" stroke="#2E3038" stroke-linecap="round" stroke-linejoin="round"/>
<path d="M330.049 134.502C330.049 134.502 332.319 136.066 332.392 137.407C332.392 138.227 332.392 139.642 332.319 140.76C332.245 141.579 332.099 142.473 331.733 143.218L327.706 148.21L323.018 144.41L319.137 146.422C319.137 146.422 318.405 140.313 320.089 136.066C321.773 131.82 329.17 133.459 330.049 134.502Z" fill="white" stroke="#2E3038" stroke-linecap="round" stroke-linejoin="round"/>
<path d="M333.269 122.73C333.269 122.73 332.317 126.083 331.878 128.318C331.437 130.553 330.559 135.023 330.633 136.662C330.705 138.301 323.748 145.453 322.943 144.41C322.137 143.367 321.186 137.183 321.186 137.183L322.064 127.2C321.99 127.2 331.072 116.994 333.269 122.73Z" fill="white" stroke="#2E3038" stroke-linecap="round" stroke-linejoin="round"/>
<path d="M318.769 117.515C318.769 117.515 317.524 119.601 317.524 120.495C317.524 121.389 317.964 123.177 317.891 123.699C317.817 124.22 316.572 125.934 316.426 126.53C316.279 127.051 316.5 127.573 316.939 127.796C317.232 127.945 317.524 128.094 317.817 128.318C317.817 128.318 318.184 132.937 318.769 134.129C319.355 135.321 319.868 135.843 321.626 135.992C323.383 136.141 327.484 134.278 328.07 132.788C328.656 131.298 328.729 129.51 328.802 127.424C328.876 125.338 327.411 122.209 326.313 119.303C325.214 116.398 320.674 114.61 318.769 117.515Z" fill="white" stroke="#2E3038" stroke-linecap="round" stroke-linejoin="round"/>
<path d="M337.517 132.639C340.591 132.639 343.082 130.104 343.082 126.977C343.082 123.85 340.591 121.315 337.517 121.315C334.443 121.315 331.951 123.85 331.951 126.977C331.951 130.104 334.443 132.639 337.517 132.639Z" fill="#2E3038" stroke="#2E3038" stroke-linecap="round" stroke-linejoin="round"/>
<path d="M318.695 117.217C318.695 117.217 320.966 115.28 324.993 119.154C329.021 123.028 327.483 128.765 330.192 129.957C332.902 131.149 337.882 125.263 338.468 122.283C339.054 119.303 337.296 113.269 331.877 112.077C326.457 110.885 319.94 111.704 318.695 117.217Z" fill="#2E3038" stroke="#2E3038" stroke-linecap="round" stroke-linejoin="round"/>
<path d="M318.696 117.217C318.549 115.504 319.72 114.014 321.332 113.865C321.552 113.865 321.845 113.865 322.064 113.865C325.726 114.088 326.092 119.974 327.996 122.283C329.9 124.593 330.925 124.22 330.925 124.22C330.925 124.22 327.63 125.189 325.506 123.997C323.383 122.805 322.43 116.174 318.696 117.217Z" fill="#2E3038" stroke="#2E3038" stroke-linecap="round" stroke-linejoin="round"/>
<path d="M327.191 127.722C327.191 127.722 331.073 122.581 331.951 126.381C332.831 130.181 329.754 131.149 328.29 130.702C326.825 130.255 327.045 129.436 327.045 129.436" fill="white"/>
<path d="M327.191 127.722C327.191 127.722 331.073 122.581 331.951 126.381C332.831 130.181 329.754 131.149 328.29 130.702C326.825 130.255 327.045 129.436 327.045 129.436" stroke="#2E3038" stroke-linecap="round" stroke-linejoin="round"/>
<path d="M318.55 171.827C318.55 171.827 311.153 172.869 309.908 172.869C308.663 172.869 305.588 176.818 305.588 176.818H319.136L318.55 171.827Z" fill="white" stroke="#2E3038" stroke-linecap="round" stroke-linejoin="round"/>
<path d="M349.965 166.761L352.602 172.869C353.041 174.136 352.382 175.477 351.137 175.924C350.917 175.999 350.697 176.073 350.405 176.073L318.402 176.222L318.622 171.827L343.448 167.803" fill="white"/>
<path d="M349.965 166.761L352.602 172.869C353.041 174.136 352.382 175.477 351.137 175.924C350.917 175.999 350.697 176.073 350.405 176.073L318.402 176.222L318.622 171.827L343.448 167.803" stroke="#2E3038" stroke-linecap="round" stroke-linejoin="round"/>
<path d="M307.124 250.724L307.271 256.61H306.319L305.146 253.704L307.124 250.724Z" fill="#2E3038" stroke="#2E3038" stroke-linecap="round" stroke-linejoin="round"/>
<path d="M305.44 246.775L304.269 238.208L298.117 238.58L300.241 247.074L297.531 252.586L291.673 256.461C291.673 256.461 291.013 257.131 293.942 256.907C296.872 256.684 302.95 256.907 302.95 256.907L306.759 252.363C306.831 252.363 308.15 249.979 305.44 246.775Z" fill="white" stroke="#2E3038" stroke-linecap="round" stroke-linejoin="round"/>
<path d="M302.95 256.907L306.759 252.363C306.759 252.363 307.784 250.65 306.392 248.191C303.683 252.959 300.021 254.374 300.021 254.374L296.286 253.48L291.673 256.535C291.673 256.535 291.013 257.206 293.942 256.982C296.872 256.758 302.95 256.907 302.95 256.907Z" fill="#2E3038" stroke="#2E3038" stroke-linecap="round" stroke-linejoin="round"/>
<path d="M302.658 194.103L305.294 239.773L296.946 239.996L288.816 198.499C288.816 198.499 288.963 190.602 291.453 189.708C293.943 188.814 300.534 189.782 300.534 189.782" fill="#184AFB"/>
<path d="M302.658 194.103L305.294 239.773L296.946 239.996L288.816 198.499C288.816 198.499 288.963 190.602 291.453 189.708C293.943 188.814 300.534 189.782 300.534 189.782" stroke="#2E3038" stroke-linecap="round" stroke-linejoin="round"/>
<path d="M266.262 95.7607L276.588 125.263C276.588 125.263 275.196 131.894 271.096 131.671C266.994 131.447 265.896 125.561 264.797 124.742C263.699 123.922 262.088 117.515 262.088 117.515L266.262 95.7607Z" fill="white" stroke="#2E3038" stroke-linecap="round" stroke-linejoin="round"/>
<path d="M239.532 89.875L222.762 95.9841L229.206 143.367H259.451L266.261 95.7607L248.1 89.9496L239.532 89.875Z" fill="white" stroke="#2E3038" stroke-linecap="round" stroke-linejoin="round"/>
<path d="M241.145 97.9956L243.561 101.646L241.438 133.235L244.586 141.43L247.735 133.458L245.026 102.168L247.222 96.8037L244.147 92.7061L241.145 97.9956Z" fill="#184AFB" stroke="#2E3038" stroke-linecap="round" stroke-linejoin="round"/>
<path d="M244.513 96.4312L240.192 99.7092L237.336 91.1415L239.313 86.7459L248.174 86.5225L250.298 88.534L249.858 99.4857L244.513 96.4312Z" fill="white" stroke="#2E3038" stroke-linecap="round" stroke-linejoin="round"/>
<path d="M249.052 84.5108L248.393 90.024L243.56 96.3566L239.898 89.8749V79.5938C239.898 79.5938 246.269 81.2327 249.052 84.5108Z" fill="white" stroke="#2E3038" stroke-linecap="round" stroke-linejoin="round"/>
<path d="M237.408 73.0375C237.408 67.9713 240.996 63.9482 245.463 63.9482C249.93 63.9482 252.42 68.2693 252.42 73.2609C252.42 74.9 252.055 77.6565 251.981 79.1466C251.762 81.6796 251.029 82.7226 249.491 85.0322C244.657 92.4823 240.703 81.5306 238.653 77.8801C237.847 76.39 237.408 74.7509 237.408 73.0375Z" fill="white" stroke="#2E3038" stroke-linecap="round" stroke-linejoin="round"/>
<path d="M248.977 74.6025L249.709 79.8177L247.293 79.7431" fill="white"/>
<path d="M248.977 74.6025L249.709 79.8177L247.293 79.7431" stroke="#2E3038" stroke-linecap="round" stroke-linejoin="round"/>
<path d="M254.326 73.708L242.829 73.7825C242.535 74.6765 242.755 75.7195 243.415 76.4645C244.147 77.2095 247.15 76.9116 247.589 76.7626C248.028 76.6135 248.321 74.453 248.321 74.453H249.2C249.2 74.453 249.273 76.688 250.518 76.8371C251.763 76.986 253.374 76.986 253.667 76.7626C254.985 75.794 254.326 73.708 254.326 73.708Z" fill="white" stroke="#2E3038" stroke-linecap="round" stroke-linejoin="round"/>
<path d="M238.872 78.7C238.872 78.7 241.435 84.0642 242.094 86.0012C242.753 87.9382 245.756 89.3537 248.831 88.3107C251.907 87.2677 251.101 82.6486 251.101 82.6486C251.101 82.6486 247.806 79.8176 247.22 80.4136C246.634 81.0096 243.339 83.7661 243.119 83.0956C242.899 82.4251 241.508 78.7 241.508 78.7L240.849 76.0179L242.24 75.1239C242.68 74.7514 242.753 74.1554 242.386 73.7084L241.728 72.7399C241.582 72.5164 241.508 72.2183 241.582 71.9204C241.728 71.1008 242.24 69.3873 243.266 68.9403C244.73 68.3443 246.488 69.2383 248.172 69.6108C249.856 69.9834 251.614 68.4933 251.614 68.4933L252.346 70.9518C253.958 69.3873 255.129 67.3758 255.642 65.2152C256.448 61.6392 248.099 60.2236 245.389 60.2236C242.68 60.2236 238.432 61.7137 237.187 65.6622C235.942 69.6108 238.139 78.0295 238.872 78.7Z" fill="#2E3038" stroke="#2E3038" stroke-linecap="round" stroke-linejoin="round"/>
<path d="M239.239 77.0609C239.239 77.0609 236.969 74.5279 236.969 77.2844C236.969 80.041 237.628 80.041 239.019 81.0095C240.411 81.978 240.85 80.786 240.85 80.786" fill="white"/>
<path d="M239.239 77.0609C239.239 77.0609 236.969 74.5279 236.969 77.2844C236.969 80.041 237.628 80.041 239.019 81.0095C240.411 81.978 240.85 80.786 240.85 80.786" stroke="#2E3038" stroke-linecap="round" stroke-linejoin="round"/>
<path d="M269.484 248.786H269.558L269.338 247.743L259.452 143.441H229.134L219.174 248.861H219.247L225.692 249.457C225.692 249.457 232.795 225.095 232.795 223.307C232.795 221.519 234.846 204.681 234.846 204.681L244.952 168.548L253.959 204.532C253.959 204.532 256.009 221.37 256.009 223.158C256.009 224.946 263.187 249.382 263.187 249.382L269.265 248.861L269.484 248.786Z" fill="#2E3038" stroke="#2E3038" stroke-linecap="round" stroke-linejoin="round"/>
<path d="M219.321 248.787C219.321 248.787 215.439 251.841 213.242 252.735C211.045 253.629 206.871 255.864 206.871 255.864C206.871 255.864 206.871 257.28 210.46 257.28H224.593L224.373 248.787H219.321Z" fill="#2E3038" stroke="#2E3038" stroke-linecap="round" stroke-linejoin="round"/>
<path d="M224.593 255.716C218.954 256.014 213.242 255.865 207.603 255.418L206.871 255.79C206.871 255.79 206.871 257.206 210.46 257.206H224.667L224.593 255.716Z" fill="white" stroke="#2E3038" stroke-linecap="round" stroke-linejoin="round"/>
<path d="M268.898 248.787C268.898 248.787 272.779 251.841 274.976 252.735C277.173 253.629 281.348 255.864 281.348 255.864C281.348 255.864 281.348 257.28 277.759 257.28H263.625L263.918 248.787H268.898Z" fill="#2E3038" stroke="#2E3038" stroke-linecap="round" stroke-linejoin="round"/>
<path d="M263.625 255.716C269.264 256.014 274.976 255.865 280.615 255.418L281.348 255.79C281.348 255.79 281.348 257.206 277.759 257.206H263.625V255.716Z" fill="white" stroke="#2E3038" stroke-linecap="round" stroke-linejoin="round"/>
<path d="M222.763 95.9844L211.559 126.307H222.251L226.279 118.037L222.763 95.9844Z" fill="white" stroke="#2E3038" stroke-linecap="round" stroke-linejoin="round"/>
<path d="M271.535 121.613C267.068 119.751 252.715 118.782 251.982 118.782C251.25 118.782 227.962 116.845 226.058 116.547C224.154 116.249 221.957 120.719 221.957 120.719L232.063 120.421L244.366 122.954C244.366 122.954 269.265 132.118 271.17 131.596C271.389 131.522 271.682 131.373 271.828 131.149" fill="white"/>
<path d="M271.535 121.613C267.068 119.751 252.715 118.782 251.982 118.782C251.25 118.782 227.962 116.845 226.058 116.547C224.154 116.249 221.957 120.719 221.957 120.719L232.063 120.421L244.366 122.954C244.366 122.954 269.265 132.118 271.17 131.596C271.389 131.522 271.682 131.373 271.828 131.149" stroke="#2E3038" stroke-linecap="round" stroke-linejoin="round"/>
<path d="M219.466 120.197L257.986 116.323L258.278 119.676L224.958 129.957C224.958 129.957 218.953 131.373 214.266 130.479C209.579 129.585 211.776 124.891 212.875 122.134" fill="white"/>
<path d="M219.466 120.197L257.986 116.323L258.278 119.676L224.958 129.957C224.958 129.957 218.953 131.373 214.266 130.479C209.579 129.585 211.776 124.891 212.875 122.134" stroke="#2E3038" stroke-linecap="round" stroke-linejoin="round"/>
<path d="M257.988 116.323L265.385 116.025L267.581 120.496L258.281 119.676L257.988 116.323Z" fill="white" stroke="#2E3038" stroke-linecap="round" stroke-linejoin="round"/>
<path d="M307.125 181.661L313.422 257.877C313.496 258.323 313.935 258.621 314.374 258.621C314.374 258.621 314.374 258.621 314.448 258.621C314.814 258.546 315.107 258.174 315.034 257.727L310.713 181.735L307.125 181.661Z" fill="#2E3038" stroke="#2E3038" stroke-linecap="round" stroke-linejoin="round"/>
<path d="M349.381 181.661L355.752 258.174C355.825 258.621 356.264 258.919 356.704 258.919H356.777C357.144 258.845 357.436 258.472 357.363 258.025L353.042 181.735L349.381 181.661Z" fill="#2E3038" stroke="#2E3038" stroke-linecap="round" stroke-linejoin="round"/>
<path d="M174.942 181.661L171.646 257.206C171.573 257.578 171.866 258.025 172.232 258.1C172.671 258.174 173.111 257.951 173.184 257.504C173.184 257.504 173.184 257.429 173.184 257.355L178.53 181.661H174.942Z" fill="#2E3038" stroke="#2E3038" stroke-linecap="round" stroke-linejoin="round"/>
<path d="M135.983 181.661L132.688 256.907C132.688 257.355 132.907 257.727 133.347 257.802C133.786 257.877 134.225 257.652 134.299 257.206V257.132L139.571 181.661H135.983Z" fill="#2E3038" stroke="#2E3038" stroke-linecap="round" stroke-linejoin="round"/>
<path d="M357.654 177.489H133.637V184.045H357.654V177.489Z" fill="#184AFB" stroke="#2E3038" stroke-linecap="round" stroke-linejoin="round"/>
<path d="M357.654 177.489H133.637V179.724H357.654V177.489Z" fill="#2E3038" stroke="#2E3038" stroke-linecap="round" stroke-linejoin="round"/>
<path d="M357.583 177.489H301.561V184.045H357.583V177.489Z" fill="#2E3038" stroke="#2E3038" stroke-linecap="round" stroke-linejoin="round"/>
<path d="M359.633 175.328H131.66V177.861H359.633V175.328Z" fill="#184AFB" stroke="#2E3038" stroke-linecap="round" stroke-linejoin="round"/>
<path d="M359.634 175.328H303.904V177.861H359.634V175.328Z" fill="#2E3038" stroke="#2E3038" stroke-linecap="round" stroke-linejoin="round"/>
<path d="M182.411 175.03H213.022C213.242 175.03 213.461 174.881 213.608 174.658L222.103 154.99C222.249 154.692 222.103 154.319 221.81 154.17C221.737 154.17 221.663 154.096 221.59 154.096H190.906C190.686 154.096 190.466 154.245 190.393 154.468L181.972 174.136C181.825 174.435 181.972 174.807 182.264 174.956C182.264 175.03 182.338 175.03 182.411 175.03Z" fill="white" stroke="#2E3038" stroke-linecap="round" stroke-linejoin="round"/>
<path d="M185.266 173.54H211.337C211.557 173.54 211.703 173.391 211.776 173.242L219.026 156.48C219.173 156.255 219.026 155.883 218.807 155.809C218.734 155.734 218.66 155.734 218.587 155.734H192.516C192.297 155.734 192.15 155.883 192.077 156.032L184.827 172.795C184.681 173.019 184.827 173.391 185.12 173.466C185.193 173.54 185.193 173.54 185.266 173.54Z" fill="#184AFB" stroke="#2E3038" stroke-linecap="round" stroke-linejoin="round"/>
<path d="M213.461 173.764H167.471V175.253H213.461V173.764Z" fill="white" stroke="#2E3038" stroke-linecap="round" stroke-linejoin="round"/>
<path d="M213.462 173.764H191.199V175.253H213.462V173.764Z" fill="white" stroke="#2E3038" stroke-linecap="round" stroke-linejoin="round"/>
<path d="M228.254 163.11H220.125V175.329H228.254V163.11Z" fill="white" stroke="#2E3038" stroke-linecap="round" stroke-linejoin="round"/>
<path d="M227.889 173.689H227.01C226.644 173.689 226.35 173.391 226.35 173.019C226.35 172.646 226.644 172.348 227.01 172.348H227.889C228.621 172.348 229.133 171.752 229.133 171.081V168.102C229.133 167.357 228.547 166.835 227.889 166.835H226.791C226.424 166.835 226.131 166.537 226.131 166.164C226.131 165.792 226.424 165.494 226.791 165.494H227.889C229.353 165.494 230.452 166.686 230.452 168.102V171.081C230.452 172.497 229.28 173.689 227.889 173.689Z" fill="white" stroke="#2E3038" stroke-linecap="round" stroke-linejoin="round"/>
<path d="M291.525 175.03H260.915C260.695 175.03 260.476 174.881 260.402 174.658L251.907 154.99C251.761 154.692 251.907 154.319 252.2 154.17C252.274 154.17 252.347 154.096 252.42 154.096H283.031C283.251 154.096 283.47 154.245 283.616 154.468L292.112 174.136C292.259 174.435 292.112 174.807 291.819 174.956C291.746 175.03 291.599 175.03 291.525 175.03Z" fill="white" stroke="#2E3038" stroke-linecap="round" stroke-linejoin="round"/>
<path d="M306.541 173.764H260.551V175.253H306.541V173.764Z" fill="white" stroke="#2E3038" stroke-linecap="round" stroke-linejoin="round"/>
<path d="M292.261 173.764H260.551V175.253H292.261V173.764Z" fill="white" stroke="#2E3038" stroke-linecap="round" stroke-linejoin="round"/>
<path d="M272.56 162.365C272.999 163.259 272.706 164.377 271.828 164.824C270.949 165.271 269.85 164.973 269.411 164.079C268.971 163.185 269.264 162.142 270.144 161.62C270.949 161.099 272.047 161.471 272.56 162.365Z" fill="white" stroke="#2E3038" stroke-linecap="round" stroke-linejoin="round"/>
<path d="M141.987 157.448C141.987 157.448 144.257 162.291 144.477 163.558C144.696 164.824 144.989 167.431 144.037 168.624C142.866 170.039 141.767 168.922 141.767 168.922C141.767 168.922 138.765 168.176 138.765 165.569C138.765 162.962 138.545 159.46 138.545 159.46L141.987 157.448Z" fill="white" stroke="#2E3038" stroke-linecap="round" stroke-linejoin="round"/>
<path d="M139.498 165.047L143.745 166.165" stroke="#2E3038" stroke-linecap="round" stroke-linejoin="round"/>
<path d="M140.522 162.142L141.693 164.079C141.693 164.079 138.91 168.922 140.375 167.655C141.84 166.389 144.696 164.824 144.403 163.557C143.963 162.217 143.451 160.95 142.719 159.684" fill="white"/>
<path d="M140.522 162.142L141.693 164.079C141.693 164.079 138.91 168.922 140.375 167.655C141.84 166.389 144.696 164.824 144.403 163.557C143.963 162.217 143.451 160.95 142.719 159.684" stroke="#2E3038" stroke-linecap="round" stroke-linejoin="round"/>
<path d="M183.143 111.555C183.143 111.555 184.974 117.366 184.974 118.484C184.974 119.303 184.9 120.123 184.827 120.942L186.438 123.475C186.658 123.848 186.512 124.221 186.219 124.444L183.729 125.934C183.729 125.934 183.363 131.894 182.996 132.639C182.63 133.384 176.406 133.235 176.406 133.235L174.355 137.184L163.883 133.012L166.666 125.338L166.08 113.79C166.08 113.79 172.524 107.979 183.143 111.555Z" fill="white" stroke="#2E3038" stroke-linecap="round" stroke-linejoin="round"/>
<path d="M175.967 125.636C175.967 125.636 174.136 127.349 172.745 127.498C171.354 127.647 166.96 126.604 166.593 126.083C166.227 125.561 163.152 119.08 163.298 115.951C163.444 112.821 163.518 108.202 166.813 106.638C170.109 105.073 175.381 105.595 178.091 103.881C180.801 102.168 185.195 100.752 187.465 103.732C189.735 106.712 188.051 110.959 186.22 112.673C184.389 114.386 182.119 114.908 182.338 115.653C182.558 116.398 183.95 117.292 183.144 118.409C182.338 119.527 179.482 120.644 179.482 121.091C179.482 121.538 180.142 123.177 179.409 123.401C178.677 123.624 177.798 121.836 176.993 121.836C176.187 121.836 174.503 124.146 175.967 125.636Z" fill="#2E3038" stroke="#2E3038" stroke-linecap="round" stroke-linejoin="round"/>
<path d="M175.82 125.934L177.285 126.307C177.139 127.722 177.505 129.138 178.383 130.255" fill="white"/>
<path d="M175.82 125.934L177.285 126.307C177.139 127.722 177.505 129.138 178.383 130.255" stroke="#2E3038" stroke-linecap="round" stroke-linejoin="round"/>
<path d="M177.504 121.911L187.83 119.304" stroke="#2E3038" stroke-linecap="round" stroke-linejoin="round"/>
<path d="M185.193 119.08L187.537 119.155C187.537 119.155 188.342 121.837 185.926 122.209" stroke="#2E3038" stroke-linecap="round" stroke-linejoin="round"/>
<path d="M174.794 247.893C174.794 247.893 184.315 254.002 185.999 254.002C187.683 254.002 188.489 255.567 187.683 255.716C186.878 255.864 181.678 256.089 178.163 256.237C174.648 256.386 172.305 256.089 170.327 256.089C168.35 256.089 166.007 256.237 164.981 255.716C163.956 255.195 165.64 249.383 165.64 248.414C165.64 247.446 173.623 247.223 174.794 247.893Z" fill="#2E3038" stroke="#2E3038" stroke-linecap="round" stroke-linejoin="round"/>
<path d="M187.024 254.3C183.29 255.567 177.358 254.747 173.696 254.374C170.84 254.076 166.373 254.076 164.542 254.002C164.469 254.896 164.542 255.567 164.835 255.716C165.86 256.237 168.204 256.088 170.181 256.088C172.158 256.088 174.502 256.461 178.017 256.237C181.532 256.013 186.731 255.864 187.537 255.716C188.269 255.641 187.976 254.747 187.024 254.3Z" fill="white" stroke="#2E3038" stroke-linecap="round" stroke-linejoin="round"/>
<path d="M182.266 205.874L174.723 244.242L176.261 248.191C175.162 249.83 173.405 251.022 171.501 251.469C169.377 251.916 167.18 252.14 164.983 252.14C164.983 252.14 164.178 247.892 164.69 247.372C165.203 246.85 165.349 244.839 165.349 244.839L169.67 206.246L182.266 205.874Z" fill="#184AFB" stroke="#2E3038" stroke-linecap="round" stroke-linejoin="round"/>
<path d="M205.186 246.627C205.186 246.627 211.045 251.544 213.681 252.438C216.318 253.332 219.174 254.151 219.174 254.971C219.174 255.79 212.802 256.684 207.969 256.163C203.136 255.641 195.739 253.481 194.128 253.481C192.517 253.481 192.81 249.085 192.81 248.34C192.81 247.595 201.012 242.231 205.186 246.627Z" fill="#2E3038" stroke="#2E3038" stroke-linecap="round" stroke-linejoin="round"/>
<path d="M219.247 254.97C219.247 254.673 218.881 254.374 218.295 254.077C213.535 254.747 208.629 254.673 203.869 254.002C199.035 253.331 195.008 252.363 192.957 251.841C193.103 252.735 193.47 253.48 194.129 253.48C195.813 253.48 203.136 255.716 207.97 256.162C212.803 256.61 219.247 255.79 219.247 254.97Z" fill="white" stroke="#2E3038" stroke-linecap="round" stroke-linejoin="round"/>
<path d="M176.114 188.739C181.094 188.366 186.147 188.44 191.127 189.111C199.622 190.154 218.662 191.347 219.028 193.506C219.394 195.667 204.235 241.709 204.235 242.902C204.235 244.093 205.553 245.286 205.92 245.956C206.139 246.403 206.213 246.925 206.286 247.52C206.286 247.52 202.185 251.991 199.036 253.183C195.887 254.374 193.177 253.257 192.518 253.257C191.859 253.257 191.859 248.638 192.372 246.478C192.884 244.317 193.69 238.655 193.91 238.133C194.129 237.611 203.21 204.906 203.21 204.906C203.21 204.906 178.311 209.003 163.445 207.29C148.579 205.576 147.041 203.192 146.235 199.616C145.43 196.04 147.041 188.888 147.041 188.888L176.114 188.739Z" fill="#184AFB" stroke="#2E3038" stroke-linecap="round" stroke-linejoin="round"/>
<path d="M174.209 199.765C173.842 200.286 173.476 200.733 173.109 201.18" stroke="#2E3038" stroke-linecap="round" stroke-linejoin="round"/>
<path d="M178.749 190.602C177.797 193.06 176.698 195.444 175.453 197.754" stroke="#2E3038" stroke-linecap="round" stroke-linejoin="round"/>
<path d="M176.771 192.315C174.721 195.667 171.718 198.35 168.057 199.765" stroke="#2E3038" stroke-linecap="round" stroke-linejoin="round"/>
<path d="M214.707 201.701C215.293 201.478 215.805 201.255 216.318 201.031L214.707 201.701Z" fill="white"/>
<path d="M214.707 201.701C215.293 201.478 215.805 201.255 216.318 201.031" stroke="#2E3038" stroke-linecap="round" stroke-linejoin="round"/>
<path d="M203.137 204.905C206.359 204.31 209.508 203.49 212.657 202.447L203.137 204.905Z" fill="white"/>
<path d="M203.137 204.905C206.359 204.31 209.508 203.49 212.657 202.447" stroke="#2E3038" stroke-linecap="round" stroke-linejoin="round"/>
<path d="M222.47 148.433C222.836 147.018 223.422 147.092 222.909 146.645C222.25 145.975 221.737 146.794 219.907 147.837C218.076 148.88 216.172 150.221 216.172 150.221C216.245 149.849 216.391 149.476 216.611 149.178C217.05 148.359 217.343 147.465 217.343 146.571C217.343 145.826 216.758 145.975 216.538 146.72C216.318 147.465 214.194 148.731 214.121 149.327C214.048 149.923 213.609 152.233 213.609 152.233C212.949 153.276 212.949 158.045 212.949 158.045L199.401 168.4L192.518 176.595C192.518 176.595 195.52 181.512 197.204 180.842C198.889 180.171 199.694 179.5 203.722 176.073C207.091 173.168 215.659 159.907 215.659 159.907C217.124 158.938 218.515 157.895 219.833 156.703C221.371 154.99 222.25 152.754 222.396 150.445C222.323 149.7 222.323 149.029 222.47 148.433Z" fill="white" stroke="#2E3038" stroke-linecap="round" stroke-linejoin="round"/>
<path d="M159.71 132.639C159.71 132.639 161.028 127.722 166.447 128.691C171.866 129.659 176.114 134.278 177.066 135.917C178.018 137.556 159.344 135.247 159.344 135.247L159.71 132.639Z" fill="white" stroke="#2E3038" stroke-linecap="round" stroke-linejoin="round"/>
<path d="M191.272 175.627C191.272 175.627 190.027 177.042 191.272 179.202C192.151 180.693 193.689 181.884 196.618 181.363C199.401 180.841 203.502 173.913 203.502 168.996C203.502 164.079 199.987 163.781 198.669 164.749C197.35 165.718 191.272 175.627 191.272 175.627Z" fill="white" stroke="#2E3038" stroke-linecap="round" stroke-linejoin="round"/>
<path d="M162.052 132.118C162.052 132.118 149.017 138.376 147.186 139.568C145.355 140.76 144.184 155.511 144.184 158.119C144.184 160.726 146.014 185.684 146.527 189.931C147.04 194.177 163.078 197.083 168.424 195.518C173.77 193.954 178.969 190.155 178.969 188.739C178.969 187.323 178.456 175.85 178.823 173.615C179.189 171.38 182.191 162.067 182.191 162.067L191.345 176.893C191.345 176.893 192.297 178.681 195.666 177.265C200.499 175.254 200.939 167.357 200.939 167.357C200.939 167.357 195.593 157.821 194.055 153.053C192.517 148.285 191.858 144.708 191.199 143.889C190.54 143.069 175.454 135.917 172.817 134.055C169.742 131.596 165.714 130.926 162.052 132.118Z" fill="white" stroke="#2E3038" stroke-linecap="round" stroke-linejoin="round"/>
<path d="M182.118 161.993L177.797 155.586" stroke="#2E3038" stroke-linecap="round" stroke-linejoin="round"/>
<path d="M181.386 161.098L173.77 157.299" stroke="#2E3038" stroke-linecap="round" stroke-linejoin="round"/>
<path d="M158.758 209.897L165.422 258.174C165.495 258.622 165.861 258.919 166.301 258.845H166.374C166.74 258.77 167.033 258.397 166.96 257.951L162.273 209.078L158.758 209.897Z" fill="#2E3038" stroke="#2E3038" stroke-linecap="round" stroke-linejoin="round"/>
<path d="M139.57 210.27L128.365 257.727C128.292 258.174 128.512 258.622 128.951 258.696H129.025C129.391 258.77 129.83 258.472 129.903 258.1L142.865 212.058L139.57 210.27Z" fill="#2E3038" stroke="#2E3038" stroke-linecap="round" stroke-linejoin="round"/>
<path d="M159.783 209.674L152.679 257.877C152.606 258.323 152.899 258.771 153.338 258.845H153.412C153.778 258.845 154.144 258.622 154.217 258.174L163.225 211.164L159.783 209.674Z" fill="#2E3038" stroke="#2E3038" stroke-linecap="round" stroke-linejoin="round"/>
<path d="M184.973 209.897L191.637 258.174C191.71 258.622 192.076 258.919 192.516 258.845H192.589C192.955 258.77 193.248 258.397 193.175 257.951L188.415 209.078L184.973 209.897Z" fill="#2E3038" stroke="#2E3038" stroke-linecap="round" stroke-linejoin="round"/>
<path d="M128.953 159.758L137.082 213.548H194.862C194.862 213.548 195.741 198.052 193.178 192.613C190.615 187.174 159.198 198.871 158.026 198.573C157.221 198.349 158.466 170.635 160.004 159.758C160.443 156.853 158.393 154.096 155.536 153.649C155.317 153.649 155.024 153.574 154.804 153.574H134.226C131.297 153.574 128.953 155.958 128.953 158.938C128.953 159.237 128.953 159.46 128.953 159.758Z" fill="#184AFB" stroke="#2E3038" stroke-linecap="round" stroke-linejoin="round"/>
<path d="M193.251 192.538C190.687 187.026 159.271 198.797 158.099 198.498C157.293 198.275 158.538 170.561 160.076 159.683C160.589 156.852 158.758 154.17 155.975 153.649C153.192 153.127 150.556 154.99 150.043 157.821C149.897 158.491 149.897 159.087 150.043 159.758L158.172 213.547H195.008C194.935 213.547 195.74 198.052 193.251 192.538Z" fill="#2E3038" stroke="#2E3038" stroke-linecap="round" stroke-linejoin="round"/>
<path d="M222.468 148.434C222.468 148.434 221.516 149.402 220.125 151.041L222.468 148.434Z" fill="white"/>
<path d="M222.468 148.434C222.468 148.434 221.516 149.402 220.125 151.041" stroke="#2E3038" stroke-linecap="round" stroke-linejoin="round"/>
<path d="M222.323 150.296C222.323 150.296 221.151 152.605 220.492 153.723L222.323 150.296Z" fill="white"/>
<path d="M222.323 150.296C222.323 150.296 221.151 152.605 220.492 153.723" stroke="#2E3038" stroke-linecap="round" stroke-linejoin="round"/>
</g>
<rect x="0.5" y="0.5" width="486" height="319" rx="7.5" stroke="#CCCCCC"/>
</svg>
